<?xml version="1.0" encoding="utf-8"?>
<!-- Generator: Adobe Illustrator 27.5.0, SVG Export Plug-In . SVG Version: 6.00 Build 0)  -->
<svg version="1.1" xmlns="http://www.w3.org/2000/svg" xmlns:xlink="http://www.w3.org/1999/xlink" x="0px" y="0px"
	 viewBox="0 0 500 500" style="enable-background:new 0 0 500 500;" xml:space="preserve">
<g id="BACKGROUND">
	<rect style="fill:#FFFFFF;" width="500" height="500"/>
</g>
<g id="OBJECTS">
	<path style="fill:#21243D;" d="M157.235,175.13c-4.233-11.49-5.913-12.799-14.32-13.46c-6.11-0.481-9.417-0.486-13.592-1.679
		c-1.06-0.303-1.645-1.518-1.929-3.16c0.365,0.081,0.738,0.113,1.106,0.056c1.153-0.178,2.031-1.161,2.426-2.272
		c1.334,1.074,3.02,1.71,4.733,1.756c0.453,0.012,0.925-0.019,1.322-0.236c0.427-0.233,0.721-0.656,0.916-1.102
		c0.545-1.244,0.385-2.77-0.406-3.874c1.393,1.172,3.58,1.323,5.071,0.277c1.49-1.046,2.082-3.229,1.246-4.846
		c1.948-0.019,3.768-1.578,4.085-3.5c0.317-1.922-0.905-3.983-2.744-4.627c1.123-0.312,2.059-1.226,2.398-2.34
		c0.339-1.115,0.07-2.395-0.69-3.279c-0.175-0.204-0.39-0.462-0.279-0.707c0.045-0.1,0.136-0.169,0.223-0.236
		c1.555-1.192,2.83-2.894,3.045-4.841c0.161-1.46-1.051-4.761-2.456-6.568c0.466-1.148,0.666-2.402,0.473-3.62
		c-0.255-1.605-1.239-3.12-2.697-3.84c-0.776-0.383-1.861-0.463-2.376,0.233c0.469-1.114,0.075-2.456-0.729-3.358
		c-0.805-0.902-1.952-1.427-3.11-1.771c-0.842-0.25-1.814-0.389-2.564,0.025c0.317-1.263-0.46-2.64-1.295-3.71
		c-1.018-1.305-2.317-2.612-3.969-2.726c-1.174-0.081-2.372,0.524-3.002,1.519c-0.105,0.165-0.216,0.356-0.407,0.399
		c-0.138,0.032-0.279-0.025-0.41-0.081c-2.174-0.934-4.347-1.867-6.521-2.8c-1.422-0.611-3.068-1.221-4.46-0.543
		c-1.183,0.576-1.777,1.9-2.717,2.821c-0.699,0.684-1.616,1.118-2.579,1.284c-2.136-0.792-5.672-1.932-7.054-2.094
		c-1.708-0.2-3.565,0.16-4.809,1.347c-1.245,1.187-1.649,3.307-0.603,4.672c0.309,0.403,0.752,0.865,0.555,1.333
		c-1.499-0.118-3.067-0.225-4.45,0.366c-0.981,0.419-1.786,1.156-2.56,1.89c-0.824,0.781-1.683,1.659-1.85,2.782
		c-0.133,0.888,0.194,1.773,0.515,2.612c-0.891,0.067-1.653,0.734-2.055,1.531c-0.402,0.798-0.5,1.712-0.534,2.605
		c-0.022,0.588-0.006,1.222,0.341,1.697c0.323,0.443,0.866,0.657,1.375,0.861c0.732,0.293,1.466,0.62,2.108,1.071
		c-0.591,0.616-1.314,1.18-1.755,1.469c-1.85,1.214-3.697,2.75-4.258,4.89c-0.193,0.734-0.215,1.54,0.103,2.229
		c0.223,0.484,0.643,0.882,1.133,1.072c-0.31,1.209-0.277,2.85-0.391,3.769c-0.091,0.736-0.13,1.513,0.179,2.187
		c0.449,0.98,1.664,1.536,2.699,1.235c-0.38,1.42-0.761,2.918-0.392,4.342c0.336,1.296,1.533,2.449,2.825,2.397
		c-0.187,1.231-0.471,2.526,0.111,3.606c0.553,1.026,1.737,1.534,2.87,1.807c1.234,0.297,2.513,0.406,3.779,0.322
		c0.902-0.06,1.862-0.271,2.588-0.769c0.056,0.206,0.121,0.408,0.212,0.602c0.266,0.563,0.747,1.06,1.357,1.185
		c0.899,0.185,1.778-0.458,2.695-0.425c0.853,0.031,1.568,0.634,2.156,1.253c0.525,0.552,1,1.149,1.438,1.772
		c-0.253,0.775-0.493,1.418-0.711,1.854c-1.59,3.181-9.344,1.392-19.891,5.287c-8.032,2.966-8.893,11.453-9.73,17.464
		c-0.837,6.011-2.691,40.486-1.345,48.577c-2.137,8.205-10.28,33.593-12.45,38.41c-2.368,5.257-8.685,17.684-7.55,18.482
		c1.134,0.798,4.839-4.836,4.839-4.836s-1.662,9.09,0.174,12.41c0,0,2.056,5.762,3.192,5.308c1.136-0.455-1.87-11.617,0.89-13.837
		c0,0,1.248,11.985,3.117,12.85c1.869,0.865,2.137-2.652,2.013-7.266s1.866-10.167,4.029-10.324c0.116-0.008,0.23,0.011,0.344,0.038
		c0.171,4.551,0.756,9.729,1.938,15.64C85.251,333.167,88.7,339.81,88.7,339.81s-7.748,18.367-6.185,26.964
		c1.563,8.597,18.671,45.331,18.671,45.331s-4.993,6.643-3.43,12.896c1.563,6.253-4.689,23.056-0.391,23.838
		c4.299,0.782,16.804,1.954,16.804,0s-2.736-2.736-2.736-4.299c0-1.563,1.563-13.677,0.782-21.102
		c-0.782-7.425-1.954-63.698,0-68.778c1.954-5.08-0.391-23.447-0.782-25.792c-0.391-2.345,6.758-49.629,6.758-49.629
		c-1.172,10.942,7.034,47.285,6.643,49.629c-0.391,2.345-2.735,20.711-0.782,25.792c1.954,5.08,0.782,61.353,0,68.778
		c-0.782,7.425,0.782,19.539,0.782,21.102c0,1.563-2.735,2.345-2.735,4.299s12.505,0.782,16.804,0
		c4.299-0.782-1.954-17.585-0.391-23.838s-3.43-12.896-3.43-12.896s17.108-36.734,18.671-45.331
		c1.563-8.597-6.185-26.964-6.185-26.964s4.323-6.48,10.484-41.814c5.054-28.985-4.55-42.429-6.73-44.94h-0.113
		c-0.006-0.043-0.01-0.084-0.016-0.126c0.04,0.039,0.073,0.072,0.122,0.118c-0.047-0.054-0.085-0.096-0.125-0.14
		c-0.813-6.111,1.045-7.775-7.401-21.622c10.953-1.796,25.836-4.904,28.458-8.837C174.762,218.675,161.469,186.621,157.235,175.13z
		 M79.025,262.131c-1.026,2.684-1.917,6.064-2.407,10.257C75.739,269.698,77.004,265.987,79.025,262.131z M93.382,231.172
		c-0.74,1.212-1.405,2.324-2.009,3.361c1.297-7.95,2.452-17.618,3.06-23.007C96.426,213.909,100.004,220.336,93.382,231.172z
		 M140.87,214.519c1.132-2.726,2.849-4.058,2.849-4.058c2.552-1.517,2.836-8.764,4.857-12.03l4.62,9.806L140.87,214.519z"/>
	<path style="fill:#21243D;" d="M314.382,219.41c0.226-2.397-4.36-11.057-4.384-12.964c-0.023-1.906,20.346-26.822,18.64-32.493
		c-0.536-1.783-1.491-4.473-2.559-7.462c-1.186-5.926-14.57-35.73-18.883-43.773c-4.312-8.04-14.105-7.784-18.736-7.842
		c-0.792-0.068-1.595-0.128-2.408-0.183c-6.578-0.447-6.237-3.213-5.616-5.918c0,0,4.766,0.869,6.414-0.087
		c1.768-1.025,6.166-4.855,7.514-30.915c5.242-3.295,12.431-14.977-4.643-15.875c-17.073-0.899-15.576-4.194-23.513-5.392
		c-7.938-1.198-20.818,2.846-25.461,21.267c-4.643,18.421-5.328,30.753,5.392,32.949c12.431,2.546,18.448,1.126,18.448,1.126
		s0.987,3.594-3.626,3.84c-1.261,0.067-2.598,0.098-3.96,0.131l0,0c-17.273-0.141-18.978,4.072-19.473,20.374
		c-0.197,6.472-7.992,39.416-7.992,39.416c-3.733,7.655-19.027,36.291-22.033,38.872c-3.005,2.581-15.062,0.793-18.665,2.943
		c-3.603,2.15-12.685,7.25-12.165,8.589c0.52,1.339,9.448-2.538,9.448-2.538s-2.929,2.265-3.387,4.753
		c-0.457,2.488-0.749,4.514,0.26,5.277c1.009,0.764,2.382-4.861,2.684-5.533c0.302-0.672,4.034-2.505,4.671-2.528
		c0.637-0.023-1.024,1.061-1.461,4.261c-0.279,2.045-0.318,3.314,0.515,3.3c0.833-0.014,2.369-3.161,2.318-3.637
		c-0.052-0.476,1.888-3.164,8.109-3.507c6.221-0.342,9.163-0.433,13.538-5.384c4.375-4.951,25.673-31.199,29.96-43.023
		c1.282-3.537,2.959-10.144,4.697-17.759c2.118,4.339,4.484,8.565,6.514,12.964c3.838,8.315-5.17,6.115-11.478,29.24
		c-0.451,1.653-1.728,3.081-2.664,4.775c-15.434,27.917-5.709,47.735-2.985,67.254c2.724,19.519,2.497,62.665,0.227,70.609
		c-4.464,15.623-2.724,57.803-3.631,61.888c-0.908,4.085-3.178,5.901-3.178,10.894c0,4.993-5.447,14.072-6.582,17.25
		c-1.135,3.178,3.858,14.072,7.49,15.207c3.632,1.135,7.49-5.417,8.852-7.914c1.362-2.497-1.135-16.115,0-18.157
		c1.135-2.043,2.043-6.582,1.362-10.667c-0.681-4.085,6.745-18.05,10.894-33.137c4.993-18.157-0.222-28.383,2.048-33.83
		c2.27-5.447,1.13-12.676,1.13-12.676c6.222-12.444,13.11-72.356,14.956-89.274c-0.991,18.398,2.702,74.479,4.428,78.38
		c2.325,5.255,2.632,18.838,0.323,32.229c-1.922,11.147,5.259,23.378,7.529,47.436c0.636,6.741-3.631,9.306-5.674,14.98
		c-3.061,8.502,5.52,11.051,9.378,11.505c3.858,0.454,7.171,9.603,7.852,12.553c0.681,2.951,19.085,3.858,19.085,0
		c0-3.859-5.674-1.816-11.575-11.575c-5.901-9.76-9.079-27.69-5.674-47.436c3.405-19.746-2.27-35.407-1.964-39.773
		c0.56-8,2.525-6.598,2.525-13.191c0-6.593,10.76-68.938,11.774-85.675c0.282-4.654,0.171-8.248-0.135-11.319
		c0.009-0.014,0.017-0.028,0.026-0.041C310.32,229.93,314.156,221.807,314.382,219.41z M300.453,154.111
		c4.552,6.396,9.276,13.453,9.466,16.007c0.334,4.497-3.664,24.837-5.544,26.98c-0.177,0.202-0.405,0.416-0.653,0.635
		c-2.624-6.899-6.679-11.797-7.02-17.595C296.246,172.395,294.281,161.656,300.453,154.111z M306.057,213.542
		c1.368,0.897,2.38,1.714,1.743,3.139c-0.347,0.775-0.732,1.665-1.127,2.59C306.405,217.538,306.184,215.671,306.057,213.542z"/>
	<path style="fill:#21243D;" d="M439.417,356.614c4.04-16.161,5.398-10.742-4.579-44.276c-5.017-16.864-8.73-28.975-7.176-35.502
		c1.312-5.511,2.828-16.36,0.093-32.133c0.005,0.001,0.009,0,0.014,0.001c2.95,0.342,2.234-6.106,2.234-6.106
		c0.664,1.328,7.23-12.638,9.554-17.672c2.324-5.035-8.952-30.947-11.275-46.216c-2.07-13.6-6.368-11.949-10.252-12.083
		c-0.437-0.059-0.908-0.111-1.404-0.159c-0.001,0-0.002,0-0.003-0.001v0c-3.428-0.333-8.055-0.483-11.141-1.334
		c-1.003-2.082-2.958-6.672-0.631-6.589c4.069,0.145,5.995-3.812,7.207-6.717c2.135-5.12,1.612-7.63,2.142-13.064
		c0.575-3.686,2.445-6.049,2.506-7.266c1.279-0.986,2.224-2.335,2.72-3.872c0.737-2.283,2.407-9.557-1.915-10.698
		c-14.491-3.826-13.952-10.119-25.207-9.376c-18.726,1.237-23.494,14.305-23.033,23.929c0.394,8.226,0.689,22.906-10.044,25.076
		c-9.943,2.011-17.22,14.334-9.598,28.382c-8.19,12.25-16.401,28.067-15.825,34.983c0.932,11.188,24.242,32.944,27.66,35.43
		c0,0,1.554,4.04,5.594,3.729c0,0-1.243,8.391-3.419,13.675c-2.176,5.284-8.391,18.337,1.243,45.997
		c9.634,27.66,8.391,35.119,6.216,45.686c-2.176,10.567,1.554,19.58,7.148,30.768c4.255,8.509,8.681,16.654,10.287,23.214
		c-3.05,4.38-5.505,7.974-5.625,9.419c-0.237,2.84,0.076,6.754,3.253,8.325c-0.169,2.258,0.488,4.279,3.008,5.971
		c6.481,4.351,4.616,8.081,10.522,10.256c5.905,2.176,12.431,1.865,14.918,0c2.487-1.865,2.176-1.865,0-4.973
		c-0.635-0.908-1.515-2.649-2.574-4.744c3.065,0.952,5.67,1.636,7.236,1.636c5.283,0,9.945-2.797,8.391-4.04
		c-1.554-1.243-7.459,0.932-13.675-8.081c-6.216-9.013-9.634-7.148-8.702-12.432C406.218,410.474,435.377,372.775,439.417,356.614z
		 M423.486,212.645c1.736,3.308,3.254,6.234,3.758,7.297c-1.331,2.036-2.477,4.252-3.423,6.334
		C422.533,218.587,422.949,214.597,423.486,212.645z M371.41,230.839c-1.554,0.622-0.188,3.387-2.674,10.225l-17.527-27.94
		c0,0,9.324-19.89,11.81-20.201c2.486-0.311,4.662,6.526,6.837,13.053c2.176,6.527,5.905,24.863,5.905,24.863
		S372.964,230.217,371.41,230.839z M400.624,393.07c-0.455,2.638-2.138,6.05-4.295,9.648c-2.455-17.09-3.86-38.727-3.475-41.038
		c0.622-3.729,5.905-11.188,3.729-18.336c0,0,0.111-43.527-0.169-51.647c-0.025-0.436-0.028-0.662-0.028-0.662
		c0.01,0.183,0.019,0.405,0.028,0.662c0.174,3.049,1.422,16.382,10.271,34.736c6.821,14.148,10.125,22.721,9.929,26.451
		C409.581,361.897,402.178,384.057,400.624,393.07z"/>
</g>
</svg>
